<svg width="192" height="192" viewBox="0 0 192 192" fill="none" xmlns="http://www.w3.org/2000/svg">
<path d="M0.0269541 17.0002C17.3404 17.0091 34.6539 17.0091 51.9674 17.0181C61.7158 16.7935 71.5091 18.6623 80.5477 22.3101C83.7822 23.4512 86.7741 25.1582 89.8828 26.5778C82.5154 32.1304 75.705 38.6173 70.4309 46.2184C64.9772 44.7359 59.4337 43.2983 53.7374 43.2804C44.5281 43.2085 35.3098 43.2983 26.0915 43.2265C26.0376 78.2308 26.0556 113.226 26.0825 148.23C35.3008 148.141 44.5191 148.257 53.7374 148.159C64.7976 148.024 75.7499 144.08 84.4381 137.242C95.067 129.057 102.318 116.577 104.285 103.316C105.633 93.1364 104.303 82.5075 99.712 73.2712C104.312 65.3737 111.212 58.6981 119.451 54.6909C121.437 58.3567 123.503 61.9775 125.085 65.8409C131.76 81.2586 132.758 98.8866 128.697 115.122C123.989 132.669 113.261 148.644 98.5081 159.318C93.0634 163.442 86.9358 166.667 80.5926 169.156C71.2755 172.992 61.1048 174.672 51.051 174.439C34.043 174.421 17.035 174.457 0.0269541 174.439C-0.00898469 121.959 -0.00898469 69.4797 0.0269541 17.0002Z" fill="black"/>
<path d="M124.6 18.3299C128.527 17.7549 132.453 16.9822 136.442 17.0451C154.96 16.9822 173.468 17.0181 191.986 17.0091C192.013 69.4887 191.995 121.968 191.995 174.448C173.765 174.43 155.535 174.448 137.305 174.421C132.83 174.439 128.365 173.864 124.008 172.849C119.659 172.22 115.472 170.809 111.42 169.156C108.23 167.97 105.167 166.46 102.13 164.915C109.533 159.416 116.406 152.92 121.519 145.212C123.594 145.742 125.661 146.317 127.754 146.793L128.248 147.143C140.701 149.102 153.351 147.808 165.903 148.23C165.975 113.226 165.939 78.2218 165.921 43.2175C156.694 43.3163 147.467 43.1815 138.248 43.2893C132.004 43.3163 125.849 44.7449 120.054 46.991C108.06 52.0584 97.889 61.3396 92.3185 73.1634C85.4812 87.1077 85.4902 104.206 92.2826 118.168C91.4919 119.435 90.7103 120.701 89.8926 121.941C85.7148 127.952 80.0724 132.858 73.7112 136.443C73.4058 136.514 72.8038 136.649 72.4983 136.721C69.3896 131.043 66.3797 125.275 64.448 119.075C59.7401 104.017 59.6861 87.512 64.4301 72.4446C69.6412 56.4429 79.8837 42.0584 93.5494 32.1843C94.5647 31.3757 95.6159 30.6209 96.703 29.9112C101.393 27.0001 106.245 24.3227 111.384 22.2832C115.643 20.5132 120.126 19.3991 124.6 18.3299Z" fill="black"/>
</svg>
